<?xml version="1.0" encoding="UTF-8" standalone="no"?>
<svg
   xmlns:dc="http://purl.org/dc/elements/1.1/"
   xmlns:cc="http://creativecommons.org/ns#"
   xmlns:rdf="http://www.w3.org/1999/02/22-rdf-syntax-ns#"
   xmlns:svg="http://www.w3.org/2000/svg"
   xmlns="http://www.w3.org/2000/svg"
   xmlns:sodipodi="http://sodipodi.sourceforge.net/DTD/sodipodi-0.dtd"
   xmlns:inkscape="http://www.inkscape.org/namespaces/inkscape"
   sodipodi:docname="drawing.svg"
   inkscape:version="1.0 (4035a4f, 2020-05-01)"
   id="svg8"
   version="1.1"
   viewBox="0 0 210 297"
   height="297mm"
   width="210mm">
  <defs
     id="defs2" />
  <sodipodi:namedview
     inkscape:window-maximized="0"
     inkscape:window-y="23"
     inkscape:window-x="42"
     inkscape:window-height="1107"
     inkscape:window-width="1361"
     showgrid="false"
     inkscape:document-rotation="0"
     inkscape:current-layer="layer1"
     inkscape:document-units="mm"
     inkscape:cy="670.30331"
     inkscape:cx="293.27381"
     inkscape:zoom="5.6568542"
     inkscape:pageshadow="2"
     inkscape:pageopacity="0.0"
     borderopacity="1.0"
     bordercolor="#666666"
     pagecolor="#ffffff"
     id="base" />
  <metadata
     id="metadata5">
    <rdf:RDF>
      <cc:Work
         rdf:about="">
        <dc:format>image/svg+xml</dc:format>
        <dc:type
           rdf:resource="http://purl.org/dc/dcmitype/StillImage" />
        <dc:title></dc:title>
      </cc:Work>
    </rdf:RDF>
  </metadata>
  <g
     id="layer1"
     inkscape:groupmode="layer"
     inkscape:label="Layer 1">
    <rect
       inkscape:export-ydpi="96"
       inkscape:export-xdpi="96"
       style="fill:#de7113;fill-opacity:1;stroke:#8e480c;stroke-width:1;stroke-miterlimit:4;stroke-dasharray:none;stroke-opacity:1"
       id="rect12-61"
       width="12"
       height="12"
       x="195.35915"
       y="-76.858635"
       transform="rotate(90.211296)" />
    <path
       inkscape:export-ydpi="96"
       inkscape:export-xdpi="96"
       style="fill:none;stroke:#8e480c;stroke-width:1;stroke-linecap:butt;stroke-linejoin:miter;stroke-miterlimit:4;stroke-dasharray:none;stroke-opacity:1"
       d="m 71.525536,195.48847 -1.719791,12.17082"
       id="path854-7"
       sodipodi:nodetypes="cc" />
    <path
       inkscape:export-ydpi="96"
       inkscape:export-xdpi="96"
       style="fill:none;stroke:#8e480c;stroke-width:1;stroke-linecap:butt;stroke-linejoin:miter;stroke-miterlimit:4;stroke-dasharray:none;stroke-opacity:1"
       d="m 63.85262,202.10304 6.283854,2.24896"
       id="path858-0"
       sodipodi:nodetypes="cc" />
    <path
       inkscape:export-ydpi="96"
       inkscape:export-xdpi="96"
       style="fill:none;stroke:#8e480c;stroke-width:1;stroke-linecap:butt;stroke-linejoin:miter;stroke-miterlimit:4;stroke-dasharray:none;stroke-opacity:1"
       d="m 70.864078,199.5895 h 5.55625"
       id="path860-59" />
    <path
       inkscape:export-ydpi="96"
       inkscape:export-xdpi="96"
       style="mix-blend-mode:darken;fill:#de7113;fill-opacity:1;stroke:none;stroke-width:0.264583px;stroke-linecap:butt;stroke-linejoin:miter;stroke-opacity:1"
       d="m 64.615533,196.07981 v 5.72959 l 5.215096,1.91766 1.122532,-7.62387 z"
       id="path874-6" />
    <path
       inkscape:export-ydpi="96"
       inkscape:export-xdpi="96"
       d="m 76.861457,166.60285 a 1.8520832,2.2360722 0 0 0 -1.800923,1.71529 1.2567707,1.3922713 0 0 1 -5.16e-4,0 1.2567707,1.3922713 0 0 0 -0.249081,-0.0277 1.2567707,1.3922713 0 0 0 -1.256771,1.39227 1.2567707,1.3922713 0 0 0 0.15658,0.67241 1.7859373,2.3626422 0 0 0 -1.214398,2.21036 1.7528645,2.109502 0 0 0 -0.628901,-0.14041 1.7528645,2.109502 0 0 0 -1.748213,1.95458 1.8851562,1.7297917 0 0 0 -0.236162,-0.0138 1.8851562,1.7297917 0 0 0 -1.885156,1.72979 1.8851562,1.7297917 0 0 0 1.885156,1.72979 1.8851562,1.7297917 0 0 0 0.507463,-0.064 1.5544269,1.6876016 0 0 0 1.477428,1.16089 1.5544269,1.6876016 0 0 0 1.021128,-0.41597 2.4143228,2.7001626 0 0 0 2.087726,1.34415 2.4143228,2.7001626 0 0 0 1.876888,-1.00268 1.2567707,1.7297917 0 0 0 0.735872,0.32763 1.2567707,1.7297917 0 0 0 1.031979,-0.74359 1.8520832,1.8563617 0 0 0 1.415417,0.65922 1.8520832,1.8563617 0 0 0 1.429372,-0.67703 1.289843,0.8445766 0 0 0 1.183389,0.50827 1.289843,0.8445766 0 0 0 1.288293,-0.81282 2.1332036,1.6032275 0 0 0 0.205674,-0.0495 2.212785,2.0097964 0 0 0 1.191657,-0.15426 2.212785,2.0097964 0 0 0 1.31155,-1.95853 2.212785,2.0097964 0 0 0 -1.562698,-1.80099 2.212785,2.0097964 0 0 0 -0.802016,-0.0824 2.0567222,1.7110057 0 0 0 -0.470257,-1.09431 2.0567222,1.7110057 0 0 0 -1.738394,-0.61703 2.2910739,1.6447504 0 0 0 -0.0047,-0.004 2.7119791,2.7001626 0 0 0 -1.90841,-1.93547 1.1906249,1.7297917 0 0 0 -1.182873,-1.53137 1.1906249,1.7297917 0 0 0 -0.265618,0.0442 1.8520832,2.2360722 0 0 0 0.0016,-0.0863 1.8520832,2.2360722 0 0 0 -1.852084,-2.23606 z"
       style="fill:#ffffff;fill-opacity:1;stroke:#000000;stroke-width:0.4;stroke-miterlimit:4;stroke-dasharray:none;stroke-opacity:0.87"
       id="path1035" />
    <path
       inkscape:export-ydpi="96"
       inkscape:export-xdpi="96"
       d="m 74.073152,176.70074 a 2.3458519,1.3431602 0 0 1 -2.754151,0.19402 2.3458519,1.3431602 0 0 1 -1.150474,-1.44585 l 2.296561,0.2739 z"
       sodipodi:arc-type="slice"
       sodipodi:end="3.3469511"
       sodipodi:start="0.81551601"
       sodipodi:ry="1.3431602"
       sodipodi:rx="2.3458519"
       sodipodi:cy="175.72281"
       sodipodi:cx="72.465088"
       sodipodi:type="arc"
       id="path1141"
       style="fill:#008bff;fill-opacity:1;stroke:none;stroke-width:0.4;stroke-miterlimit:4;stroke-dasharray:none;stroke-opacity:0.87" />
    <path
       inkscape:export-ydpi="96"
       inkscape:export-xdpi="96"
       d="m 76.629696,175.35509 a 2.1943085,1.2596385 0 0 1 1.031248,1.36074 2.1943085,1.2596385 0 0 1 -1.940989,0.98007 2.1943085,1.2596385 0 0 1 -2.21948,-0.76075 2.1943085,1.2596385 0 0 1 0.582269,-1.44579 l 1.436543,0.95218 z"
       sodipodi:arc-type="slice"
       sodipodi:end="3.9986462"
       sodipodi:start="5.242977"
       sodipodi:ry="1.2596385"
       sodipodi:rx="2.1943085"
       sodipodi:cy="176.44154"
       sodipodi:cx="75.519287"
       sodipodi:type="arc"
       id="path1146"
       style="fill:#008bff;fill-opacity:1;stroke:none;stroke-width:0.4;stroke-miterlimit:4;stroke-dasharray:none;stroke-opacity:0.87" />
    <path
       inkscape:export-ydpi="96"
       inkscape:export-xdpi="96"
       d="m 79.543703,175.48429 a 1.9348913,0.93982559 0 0 1 0.909346,1.01526 1.9348913,0.93982559 0 0 1 -1.711521,0.73124 1.9348913,0.93982559 0 0 1 -1.95709,-0.5676 1.9348913,0.93982559 0 0 1 0.513446,-1.07872 l 1.266699,0.71044 z"
       sodipodi:arc-type="slice"
       sodipodi:end="3.998654"
       sodipodi:start="5.2429691"
       sodipodi:ry="0.93982559"
       sodipodi:rx="1.9348913"
       sodipodi:cy="176.29491"
       sodipodi:cx="78.564583"
       sodipodi:type="arc"
       id="path1148"
       style="fill:#008bff;fill-opacity:1;stroke:none;stroke-width:0.4;stroke-miterlimit:4;stroke-dasharray:none;stroke-opacity:0.87" />
    <path
       inkscape:export-ydpi="96"
       inkscape:export-xdpi="96"
       d="m 80.755571,173.0927 a 1.2898437,1.2235112 0 0 1 1.39421,-0.34562 1.2898437,1.2235112 0 0 1 0.861734,1.09559 1.2898437,1.2235112 0 0 1 -0.746333,1.16931 l -0.542007,-1.11025 z"
       sodipodi:arc-type="slice"
       sodipodi:end="1.1371185"
       sodipodi:start="3.8640671"
       sodipodi:ry="1.2235112"
       sodipodi:rx="1.2898437"
       sodipodi:cy="173.90173"
       sodipodi:cx="81.723175"
       sodipodi:type="arc"
       id="path1150"
       style="fill:#008bff;fill-opacity:1;stroke:none;stroke-width:0.4;stroke-miterlimit:4;stroke-dasharray:none;stroke-opacity:0.87" />
    <path
       inkscape:export-ydpi="96"
       inkscape:export-xdpi="96"
       sodipodi:open="true"
       d="m 75.010738,170.76103 a 2.0846336,1.4206195 0 0 1 -0.158869,-1.63673 2.0846336,1.4206195 0 0 1 2.211378,-0.64776"
       sodipodi:arc-type="arc"
       sodipodi:end="4.921876"
       sodipodi:start="2.4600969"
       sodipodi:ry="1.4206195"
       sodipodi:rx="2.0846336"
       sodipodi:cy="169.8661"
       sodipodi:cx="76.62973"
       sodipodi:type="arc"
       id="path1152"
       style="fill:#008bff;fill-opacity:1;stroke:none;stroke-width:0.4;stroke-miterlimit:4;stroke-dasharray:none;stroke-opacity:0.87" />
    <path
       inkscape:export-ydpi="96"
       inkscape:export-xdpi="96"
       d="m 76.181899,169.84957 a 0.37417734,0.05966573 0 0 1 -0.02671,-0.0692 0.37417734,0.05966573 0 0 1 0.401817,-0.0265 0.37417734,0.05966573 0 0 1 0.287691,0.052 0.37417734,0.05966573 0 0 1 -0.214964,0.0603"
       sodipodi:arc-type="arc"
       sodipodi:open="true"
       sodipodi:end="1.1371187"
       sodipodi:start="2.4600939"
       sodipodi:ry="0.059665728"
       sodipodi:rx="0.37417734"
       sodipodi:cy="169.81198"
       sodipodi:cx="76.472496"
       sodipodi:type="arc"
       id="path1154"
       style="fill:#008bff;fill-opacity:1;stroke:none;stroke-width:0.4;stroke-miterlimit:4;stroke-dasharray:none;stroke-opacity:0.87" />
    <path
       inkscape:export-ydpi="96"
       inkscape:export-xdpi="96"
       d="m 77.568042,172.22269 a 0.98221546,1.0739832 0 0 1 0.75344,1.27539 0.98221546,1.0739832 0 0 1 -1.165895,0.8247 0.98221546,1.0739832 0 0 1 -0.755028,-1.27426 0.98221546,1.0739832 0 0 1 1.164866,-0.82644 l -0.204265,1.0505 z"
       sodipodi:arc-type="slice"
       sodipodi:end="4.9218809"
       sodipodi:start="4.924606"
       sodipodi:ry="1.0739832"
       sodipodi:rx="0.98221546"
       sodipodi:cy="173.27258"
       sodipodi:cx="77.36116"
       sodipodi:type="arc"
       id="path1156"
       style="fill:#ffffff;fill-opacity:1;stroke:none;stroke-width:0.4;stroke-miterlimit:4;stroke-dasharray:none;stroke-opacity:0.87" />
    <path
       inkscape:export-ydpi="96"
       inkscape:export-xdpi="96"
       d="m 72.778947,174.07768 a 2.4480362,1.2251165 0 0 1 1.877851,1.45486 2.4480362,1.2251165 0 0 1 -2.90583,0.94076 2.4480362,1.2251165 0 0 1 -1.881806,-1.45358 2.4480362,1.2251165 0 0 1 2.903267,-0.94274 l -0.5091,1.19833 z"
       sodipodi:arc-type="slice"
       sodipodi:end="4.9218809"
       sodipodi:start="4.9246036"
       sodipodi:ry="1.2251165"
       sodipodi:rx="2.4480362"
       sodipodi:cy="175.27531"
       sodipodi:cx="72.263329"
       sodipodi:type="arc"
       id="path1158"
       style="fill:#ffffff;fill-opacity:1;stroke:none;stroke-width:0.4;stroke-miterlimit:4;stroke-dasharray:none;stroke-opacity:0.87" />
    <path
       inkscape:export-ydpi="96"
       inkscape:export-xdpi="96"
       style="fill:#ffffff;fill-opacity:1;stroke:none;stroke-width:0.4;stroke-miterlimit:4;stroke-dasharray:none;stroke-opacity:0.87"
       id="path1158-4"
       sodipodi:type="arc"
       sodipodi:cx="75.777351"
       sodipodi:cy="175.86801"
       sodipodi:rx="2.0188551"
       sodipodi:ry="1.2251165"
       sodipodi:start="4.9246036"
       sodipodi:end="4.9218809"
       sodipodi:arc-type="slice"
       d="m 76.202573,174.67038 a 2.0188551,1.2251165 0 0 1 1.548633,1.45486 2.0188551,1.2251165 0 0 1 -2.39639,0.94075 2.0188551,1.2251165 0 0 1 -1.551895,-1.45357 2.0188551,1.2251165 0 0 1 2.394277,-0.94274 l -0.419847,1.19833 z" />
    <path
       inkscape:export-ydpi="96"
       inkscape:export-xdpi="96"
       d="m 78.989805,174.42224 a 2.0188551,1.2251165 0 0 1 1.548633,1.45486 2.0188551,1.2251165 0 0 1 -2.39639,0.94076 2.0188551,1.2251165 0 0 1 -1.551895,-1.45358 2.0188551,1.2251165 0 0 1 2.394277,-0.94274 l -0.419847,1.19833 z"
       sodipodi:arc-type="slice"
       sodipodi:end="4.9218809"
       sodipodi:start="4.9246036"
       sodipodi:ry="1.2251165"
       sodipodi:rx="2.0188551"
       sodipodi:cy="175.61987"
       sodipodi:cx="78.564583"
       sodipodi:type="arc"
       id="path1158-4-8"
       style="fill:#ffffff;fill-opacity:1;stroke:none;stroke-width:0.4;stroke-miterlimit:4;stroke-dasharray:none;stroke-opacity:0.87" />
    <path
       inkscape:export-ydpi="96"
       inkscape:export-xdpi="96"
       transform="matrix(0.89885869,-0.43823857,0.2869978,0.95793124,0,0)"
       d="m 25.385021,187.3123 a 1.9032418,1.4766523 0 0 1 1.459947,1.75357 1.9032418,1.4766523 0 0 1 -2.259156,1.13391 1.9032418,1.4766523 0 0 1 -1.463023,-1.75202 1.9032418,1.4766523 0 0 1 2.257165,-1.1363 l -0.395804,1.44437 z"
       sodipodi:arc-type="slice"
       sodipodi:end="4.9218809"
       sodipodi:start="4.9246036"
       sodipodi:ry="1.4766523"
       sodipodi:rx="1.9032418"
       sodipodi:cy="188.75583"
       sodipodi:cx="24.98415"
       sodipodi:type="arc"
       id="path1158-4-7"
       style="fill:#ffffff;fill-opacity:1;stroke:none;stroke-width:0.40266269;stroke-miterlimit:4;stroke-dasharray:none;stroke-opacity:0.87" />
    <path
       inkscape:export-ydpi="96"
       inkscape:export-xdpi="96"
       transform="matrix(-0.89772752,-0.44055114,0.25424351,-0.96714024,0,0)"
       d="m -125.33116,-124.29478 a 2.1164711,1.2768735 0 0 1 1.62351,1.51633 2.1164711,1.2768735 0 0 1 -2.51226,0.9805 2.1164711,1.2768735 0 0 1 -1.62693,-1.51499 2.1164711,1.2768735 0 0 1 2.51004,-0.98256 l -0.44015,1.24895 z"
       sodipodi:arc-type="slice"
       sodipodi:end="4.9218809"
       sodipodi:start="4.9246036"
       sodipodi:ry="1.2768735"
       sodipodi:rx="2.1164711"
       sodipodi:cy="-123.04655"
       sodipodi:cx="-125.77695"
       sodipodi:type="arc"
       id="path1158-4-83"
       style="fill:#ffffff;fill-opacity:1;stroke:none;stroke-width:0.40401244;stroke-miterlimit:4;stroke-dasharray:none;stroke-opacity:0.87" />
  </g>
</svg>
